<svg width="26" height="24" viewBox="0 0 26 24" fill="none" xmlns="http://www.w3.org/2000/svg">
<path fill-rule="evenodd" clip-rule="evenodd" d="M24.6974 1.34853C25.0729 1.38012 25.4204 1.55943 25.6637 1.84709C25.907 2.13475 26.0262 2.50723 25.9951 2.88271L24.6565 18.9122C24.6473 19.1029 24.5998 19.2898 24.5169 19.4618C24.4339 19.6337 24.3171 19.7872 24.1735 19.9131C24.03 20.0389 23.8625 20.1346 23.6812 20.1943C23.4998 20.254 23.3083 20.2766 23.118 20.2607C22.9278 20.2448 22.7427 20.1908 22.5737 20.1018C22.4048 20.0128 22.2555 19.8907 22.1348 19.7428C22.0141 19.5949 21.9244 19.4241 21.8711 19.2408C21.8178 19.0575 21.802 18.8653 21.8246 18.6757L22.8777 6.06584L2.33988 23.4377C2.05199 23.6813 1.67915 23.8004 1.30338 23.7691C0.927622 23.7377 0.579715 23.5583 0.336199 23.2704C0.0926837 22.9825 -0.0264925 22.6097 0.00488555 22.2339C0.0362666 21.8582 0.215634 21.5103 0.503529 21.2667L21.0413 3.89483L8.43146 2.84177C8.24076 2.8326 8.05385 2.78511 7.88189 2.70214C7.70993 2.61917 7.55644 2.50242 7.43059 2.35884C7.30473 2.21526 7.20908 2.04781 7.14935 1.86646C7.08962 1.68512 7.06702 1.4936 7.08291 1.30334C7.0988 1.11307 7.15285 0.927953 7.24183 0.759029C7.33082 0.590104 7.45292 0.440834 7.60084 0.320122C7.74877 0.199409 7.9195 0.109727 8.10283 0.0564278C8.28617 0.00312812 8.47837 -0.0126975 8.66795 0.00989397L24.6974 1.34853Z" fill="#FEFEFE"/>
</svg>
