<svg width="22" height="22" viewBox="0 0 22 22" fill="none" xmlns="http://www.w3.org/2000/svg">
<path fill-rule="evenodd" clip-rule="evenodd" d="M8.14102 1.97693C6.34915 2.54459 4.76686 3.63291 3.59582 5.10318C2.42477 6.57346 1.718 8.35911 1.56558 10.2326H6.14977C6.18354 9.11107 6.28791 8.00595 6.46186 6.95814C6.67367 5.67498 6.98884 4.49209 7.39302 3.47907C7.59764 2.95731 7.84794 2.45464 8.14102 1.97693ZM11 0C9.55546 -2.15253e-08 8.12506 0.284523 6.79048 0.837325C5.4559 1.39013 4.24327 2.20038 3.22183 3.22183C2.20038 4.24327 1.39013 5.4559 0.837325 6.79048C0.284523 8.12506 0 9.55546 0 11C0 12.4445 0.284523 13.8749 0.837325 15.2095C1.39013 16.5441 2.20038 17.7567 3.22183 18.7782C4.24327 19.7996 5.4559 20.6099 6.79048 21.1627C8.12506 21.7155 9.55546 22 11 22C13.9174 22 16.7153 20.8411 18.7782 18.7782C20.8411 16.7153 22 13.9174 22 11C22 8.08262 20.8411 5.28473 18.7782 3.22183C16.7153 1.15893 13.9174 4.34724e-08 11 0ZM11 1.53488C10.7329 1.53488 10.3871 1.66381 9.98595 2.07926C9.58074 2.49879 9.17656 3.1547 8.81842 4.04902C8.46335 4.93823 8.17377 6.0106 7.97526 7.20986C7.81665 8.17172 7.71944 9.19191 7.6867 10.2326H14.3133C14.2837 9.21974 14.1873 8.20998 14.0247 7.20986C13.8262 6.0106 13.5367 4.93823 13.1816 4.04902C12.8234 3.1547 12.4193 2.49879 12.0151 2.07926C11.6129 1.66381 11.2681 1.53488 11 1.53488ZM15.8502 10.2326C15.8195 9.13534 15.7152 8.04141 15.5381 6.95814C15.3263 5.67498 15.0112 4.49209 14.607 3.47907C14.402 2.95727 14.1514 2.4546 13.858 1.97693C15.3048 2.43456 16.6202 3.23372 17.6931 4.30688C19.2804 5.89461 20.2516 7.99485 20.4334 10.2326H15.8502ZM14.3133 11.7674H7.6867C7.71842 12.8081 7.81665 13.8283 7.97526 14.7901C8.17377 15.9894 8.46335 17.0618 8.81842 17.951C9.17656 18.8453 9.58074 19.5012 9.98493 19.9207C10.3871 20.3362 10.7319 20.4651 11 20.4651C11.2671 20.4651 11.6129 20.3362 12.014 19.9207C12.4193 19.5012 12.8234 18.8453 13.1816 17.951C13.5367 17.0618 13.8262 15.9894 14.0247 14.7901C14.1833 13.8283 14.2806 12.8081 14.3133 11.7674ZM13.859 20.0231C14.1353 19.579 14.386 19.0725 14.606 18.5209C15.0112 17.5079 15.3263 16.325 15.5381 15.0419C15.7149 13.9586 15.8188 12.8646 15.8492 11.7674H20.4334C20.281 13.6409 19.5742 15.4265 18.4032 16.8968C17.2321 18.3671 15.6509 19.4554 13.859 20.0231ZM8.14 20.0231C7.84727 19.5453 7.59731 19.0427 7.39302 18.5209C6.98781 17.5079 6.67265 16.325 6.46084 15.0419C6.28409 13.9586 6.18017 12.8646 6.14977 11.7674H1.56558C1.71793 13.6408 2.42454 15.4263 3.5954 16.8966C4.76625 18.3668 6.34832 19.4552 8.14 20.0231Z" fill="#FEFEFE"/>
</svg>
