<svg width="12" height="18" viewBox="0 0 12 18" fill="none" xmlns="http://www.w3.org/2000/svg">
<path d="M12 6C12 5.21207 11.8448 4.43185 11.5433 3.7039C11.2417 2.97595 10.7998 2.31451 10.2426 1.75736C9.68549 1.20021 9.02405 0.758251 8.2961 0.456723C7.56815 0.155195 6.78793 0 6 0C5.21207 0 4.43185 0.155195 3.7039 0.456723C2.97595 0.758251 2.31451 1.20021 1.75736 1.75736C1.20021 2.31451 0.758251 2.97595 0.456723 3.7039C0.155194 4.43185 -1.17411e-08 5.21207 0 6C0 7.18886 0.350571 8.29457 0.947143 9.22714H0.940286L6 17.1429L11.0597 9.22714H11.0537C11.6716 8.26423 12.0001 7.14413 12 6ZM6 8.57143C5.31801 8.57143 4.66396 8.30051 4.18173 7.81827C3.69949 7.33604 3.42857 6.68198 3.42857 6C3.42857 5.31801 3.69949 4.66396 4.18173 4.18173C4.66396 3.69949 5.31801 3.42857 6 3.42857C6.68199 3.42857 7.33604 3.69949 7.81827 4.18173C8.30051 4.66396 8.57143 5.31801 8.57143 6C8.57143 6.68198 8.30051 7.33604 7.81827 7.81827C7.33604 8.30051 6.68199 8.57143 6 8.57143Z" fill="#14685A"/>
</svg>
