<svg width="16" height="16" viewBox="0 0 16 16" fill="none" xmlns="http://www.w3.org/2000/svg">
<path d="M15.9999 11.9288V15.0719C16 15.297 15.9148 15.5137 15.7614 15.6783C15.6079 15.843 15.3978 15.9433 15.1733 15.9591C14.7851 15.9863 14.4681 15.9999 14.2222 15.9999C6.36709 15.9999 0 9.63285 0 1.77777C0 1.53244 0.0136296 1.2154 0.0408887 0.826664C0.0566419 0.60217 0.15696 0.392008 0.321602 0.238585C0.486243 0.0851613 0.702951 -0.000101718 0.927997 2.2807e-07H4.0711C4.18135 -0.000111408 4.28771 0.0407634 4.36952 0.114684C4.45133 0.188605 4.50274 0.290295 4.51376 0.399999C4.53391 0.60385 4.55287 0.767405 4.57065 0.890664C4.74729 2.12348 5.10931 3.32251 5.64442 4.4471C5.72887 4.62487 5.67376 4.83732 5.51376 4.95109L3.59554 6.32176C4.76862 9.05444 6.9464 11.2322 9.67908 12.4053L11.048 10.4906C11.1037 10.4121 11.1853 10.3558 11.2785 10.3316C11.3717 10.3073 11.4704 10.3168 11.5573 10.3582C12.6817 10.8923 13.8805 11.2534 15.1128 11.4293C15.2361 11.4471 15.3991 11.466 15.6017 11.4862C15.7113 11.4974 15.8127 11.5489 15.8865 11.6307C15.9602 11.7125 16.0001 11.8187 15.9999 11.9288Z" fill="#14685A"/>
</svg>
