<svg width="12" height="10" viewBox="0 0 12 10" fill="none" xmlns="http://www.w3.org/2000/svg">
<path d="M10.7789 2.41879C10.7789 2.5362 10.7789 2.63014 10.7789 2.74755C10.7789 6.01174 8.31311 9.7456 3.78082 9.7456C2.37182 9.7456 1.08023 9.34638 0 8.64188C0.187867 8.66536 0.375734 8.68885 0.587084 8.68885C1.73777 8.68885 2.79452 8.28963 3.63992 7.63209C2.55969 7.60861 1.64384 6.90411 1.33855 5.91781C1.50294 5.94129 1.64384 5.96477 1.80822 5.96477C2.01957 5.96477 2.2544 5.91781 2.44227 5.87084C1.31507 5.63601 0.469667 4.64971 0.469667 3.45205V3.42857C0.798434 3.61644 1.19765 3.71037 1.59687 3.73386C0.915851 3.28767 0.493151 2.5362 0.493151 1.6908C0.493151 1.22114 0.610568 0.798434 0.821918 0.446184C2.04305 1.92564 3.87476 2.91194 5.91781 3.02935C5.87084 2.84149 5.84736 2.65362 5.84736 2.46575C5.84736 1.10372 6.95108 0 8.31311 0C9.01761 0 9.65166 0.2818 10.1213 0.774951C10.6614 0.657534 11.2016 0.446184 11.6712 0.164384C11.4834 0.751468 11.1076 1.22114 10.591 1.52642C11.0841 1.47945 11.5773 1.33855 12 1.15068C11.6712 1.64384 11.2485 2.06654 10.7789 2.41879Z" fill="#14685A"/>
</svg>
