<svg width="142" height="26" viewBox="0 0 142 26" fill="none" xmlns="http://www.w3.org/2000/svg">
<path fill-rule="evenodd" clip-rule="evenodd" d="M10.2904 7.514C10.8277 7.48926 10.9991 7.48376 12.3677 7.48376C13.7364 7.48376 13.9078 7.48972 14.4446 7.514C14.9815 7.53827 15.3479 7.62393 15.6686 7.74807C16.0043 7.87495 16.3089 8.07329 16.5609 8.32981C16.8174 8.58129 17.0153 8.88544 17.1417 9.22166C17.2663 9.54231 17.3515 9.90876 17.3762 10.4447C17.401 10.9829 17.4065 11.1542 17.4065 12.5225C17.4065 13.8907 17.4005 14.0625 17.3762 14.5998C17.3519 15.1357 17.2663 15.5022 17.1417 15.8228C17.0152 16.1591 16.817 16.4637 16.5609 16.7156C16.3089 16.9721 16.0043 17.17 15.6686 17.2964C15.3479 17.421 14.9815 17.5062 14.4455 17.531C13.9078 17.5557 13.7364 17.5612 12.3677 17.5612C10.9991 17.5612 10.8277 17.5552 10.2904 17.531C9.75449 17.5067 9.38804 17.421 9.06739 17.2964C8.73116 17.1699 8.42651 16.9717 8.17463 16.7156C7.91838 16.4639 7.72002 16.1594 7.59334 15.8233C7.46921 15.5026 7.38401 15.1362 7.35927 14.6003C7.33454 14.062 7.32904 13.8907 7.32904 12.5225C7.32904 11.1542 7.33499 10.9825 7.35927 10.4456C7.38355 9.90876 7.46921 9.54231 7.59334 9.22166C7.72015 8.88551 7.91867 8.58101 8.17508 8.32935C8.42666 8.07316 8.73099 7.8748 9.06694 7.74807C9.38758 7.62393 9.75449 7.53873 10.2904 7.514ZM14.4034 8.42096C13.872 8.39669 13.7126 8.39165 12.3673 8.39165C11.022 8.39165 10.8625 8.39669 10.3312 8.42096C9.83969 8.44341 9.5731 8.5254 9.39537 8.59457C9.16038 8.68618 8.99227 8.79474 8.81592 8.9711C8.6486 9.13362 8.51992 9.33164 8.43939 9.55055C8.37022 9.72828 8.28823 9.99487 8.26578 10.4864C8.2415 11.0177 8.23647 11.1771 8.23647 12.5225C8.23647 13.8678 8.2415 14.0272 8.26578 14.5586C8.28823 15.0501 8.37022 15.3167 8.43939 15.4944C8.52001 15.7129 8.64872 15.9112 8.81592 16.0738C8.97853 16.241 9.17687 16.3698 9.39537 16.4504C9.5731 16.5195 9.83969 16.6015 10.3312 16.624C10.8625 16.6483 11.0215 16.6533 12.3673 16.6533C13.7131 16.6533 13.872 16.6483 14.4034 16.624C14.8949 16.6015 15.1615 16.5195 15.3392 16.4504C15.5742 16.3588 15.7423 16.2502 15.9187 16.0738C16.0859 15.9112 16.2146 15.7129 16.2952 15.4944C16.3644 15.3167 16.4464 15.0501 16.4688 14.5586C16.4931 14.0272 16.4981 13.8678 16.4981 12.5225C16.4981 11.1771 16.4931 11.0177 16.4688 10.4864C16.4464 9.99487 16.3644 9.72828 16.2952 9.55055C16.2036 9.31556 16.095 9.14745 15.9187 8.9711C15.7561 8.80378 15.5581 8.6751 15.3392 8.59457C15.1615 8.5254 14.8949 8.44341 14.4034 8.42096ZM11.7237 14.0758C12.0831 14.2254 12.4834 14.2456 12.856 14.1329C13.2287 14.0202 13.5507 13.7817 13.767 13.458C13.9833 13.1343 14.0805 12.7455 14.042 12.3581C14.0035 11.9707 13.8317 11.6086 13.556 11.3338C13.3802 11.1581 13.1676 11.0236 12.9336 10.9399C12.6996 10.8563 12.4499 10.8255 12.2026 10.8499C11.9553 10.8743 11.7165 10.9532 11.5033 11.081C11.2901 11.2088 11.108 11.3822 10.9699 11.5889C10.8318 11.7955 10.7412 12.0302 10.7048 12.276C10.6683 12.5218 10.6867 12.7727 10.7588 13.0105C10.8309 13.2484 10.9548 13.4673 11.1217 13.6515C11.2885 13.8357 11.4941 13.9806 11.7237 14.0758ZM10.5364 10.6911C10.7769 10.4506 11.0624 10.2599 11.3766 10.1297C11.6909 9.99955 12.0276 9.93256 12.3677 9.93256C12.7079 9.93256 13.0446 9.99955 13.3589 10.1297C13.6731 10.2599 13.9586 10.4506 14.1991 10.6911C14.4396 10.9316 14.6304 11.2171 14.7605 11.5314C14.8907 11.8456 14.9577 12.1824 14.9577 12.5225C14.9577 12.8626 14.8907 13.1994 14.7605 13.5136C14.6304 13.8278 14.4396 14.1133 14.1991 14.3538C13.7134 14.8395 13.0546 15.1124 12.3677 15.1124C11.6809 15.1124 11.0221 14.8395 10.5364 14.3538C10.0507 13.8681 9.77784 13.2094 9.77784 12.5225C9.77784 11.8356 10.0507 11.1768 10.5364 10.6911ZM15.5321 10.3183C15.5917 10.262 15.6394 10.1944 15.6724 10.1195C15.7054 10.0445 15.723 9.96362 15.7242 9.8817C15.7254 9.79978 15.7101 9.71845 15.6793 9.64253C15.6485 9.56662 15.6028 9.49765 15.5449 9.43972C15.4869 9.38179 15.418 9.33607 15.342 9.30527C15.2661 9.27447 15.1848 9.25921 15.1029 9.26041C15.021 9.2616 14.9401 9.27922 14.8651 9.31222C14.7901 9.34522 14.7225 9.39293 14.6663 9.45253C14.557 9.56843 14.4971 9.72238 14.4994 9.8817C14.5018 10.041 14.5661 10.1932 14.6788 10.3058C14.7914 10.4185 14.9436 10.4828 15.1029 10.4851C15.2622 10.4875 15.4162 10.4276 15.5321 10.3183Z" fill="#14685A"/>
<path d="M48.5548 9.32292C48.1165 9.51153 47.644 9.63548 47.1544 9.69476C47.6554 9.40914 48.0425 8.95646 48.2247 8.41218C47.7521 8.68162 47.2284 8.87024 46.6762 8.97802C46.2264 8.51457 45.5945 8.24512 44.8772 8.24512C43.5393 8.24512 42.4463 9.2798 42.4463 10.557C42.4463 10.7402 42.4691 10.9181 42.5089 11.0851C40.4822 10.9881 38.6776 10.0666 37.4763 8.67085C37.2657 9.01035 37.1461 9.40914 37.1461 9.82948C37.1461 10.6324 37.5731 11.3438 38.2335 11.748C37.8293 11.748 37.4536 11.6402 37.1234 11.4785V11.4947C37.1234 12.6156 37.9659 13.5533 39.0818 13.7634C38.7236 13.8566 38.3474 13.8696 37.983 13.8012C38.1376 14.2606 38.4405 14.6626 38.8489 14.9506C39.2574 15.2387 39.7509 15.3983 40.2602 15.4071C39.397 16.054 38.3269 16.4037 37.2259 16.3987C37.0323 16.3987 36.8387 16.3879 36.6452 16.3663C37.7268 17.0238 39.0134 17.4064 40.3911 17.4064C44.8772 17.4064 47.3422 13.882 47.3422 10.8264C47.3422 10.7241 47.3422 10.6271 47.3366 10.5247C47.8148 10.2013 48.2247 9.79176 48.5548 9.32292Z" fill="#14685A"/>
<path fill-rule="evenodd" clip-rule="evenodd" d="M69.7046 10.9952H71.5759V11.9274C71.8455 11.3913 72.5368 10.9096 73.5753 10.9096C75.5661 10.9096 76.0387 11.9768 76.0387 13.9348V17.5612H74.0232V14.3807C74.0232 13.2657 73.7537 12.6369 73.0674 12.6369C72.1156 12.6369 71.72 13.3146 71.72 14.3802V17.5612H69.7046V10.9952ZM66.2485 17.4755H68.264V10.9096H66.2485V17.4755ZM68.5527 8.76864C68.5528 8.93757 68.5193 9.10484 68.4541 9.26071C68.389 9.41658 68.2935 9.55796 68.1733 9.67661C68.0527 9.79659 67.9096 9.89163 67.7523 9.9563C67.5949 10.021 67.4264 10.054 67.2562 10.0535C66.9134 10.0527 66.5845 9.91761 66.3402 9.67711C66.2204 9.55802 66.1253 9.41649 66.0603 9.2606C65.9953 9.10471 65.9616 8.93754 65.9613 8.76864C65.9613 8.42751 66.0973 8.10101 66.3407 7.86016C66.5844 7.61874 66.9137 7.48345 67.2567 7.48376C67.6004 7.48376 67.9299 7.61931 68.1733 7.86016C68.4167 8.10101 68.5527 8.42751 68.5527 8.76864Z" fill="#14685A"/>
<path d="M100.908 8.02515C101.202 8.02683 101.936 8.03414 102.717 8.06619L102.994 8.07855C103.779 8.11622 104.564 8.18144 104.954 8.29219C105.474 8.44174 105.882 8.87689 106.02 9.42897C106.239 10.306 106.267 12.0162 106.27 12.4306L106.271 12.516V12.6139C106.267 13.0282 106.239 14.739 106.02 15.6155C105.88 16.1692 105.471 16.605 104.954 16.7523C104.564 16.863 103.779 16.9282 102.994 16.9659L102.717 16.9788C101.936 17.0103 101.202 17.0182 100.908 17.0193L100.779 17.0199H100.639C100.018 17.0159 97.4199 16.9873 96.5932 16.7523C96.0743 16.6027 95.6658 16.1676 95.5278 15.6155C95.308 14.7384 95.2805 13.0282 95.2772 12.6139V12.4306C95.2805 12.0162 95.308 10.3055 95.5278 9.42897C95.6675 8.8752 96.0759 8.43949 96.5937 8.29276C97.4199 8.05719 100.018 8.02852 100.64 8.02515H100.908ZM99.6743 10.5551V14.4905L102.972 12.5228L99.6743 10.5551Z" fill="#14685A"/>
<path d="M128.556 18.3114V13.6468H126.775C126.682 13.6468 126.593 13.6099 126.528 13.5444C126.463 13.4789 126.426 13.39 126.426 13.2973V11.4523C126.426 11.3596 126.463 11.2707 126.528 11.2052C126.593 11.1397 126.682 11.1028 126.775 11.1028H128.549V9.31689C128.506 8.89336 128.557 8.46566 128.697 8.06382C128.837 7.66197 129.063 7.29574 129.36 6.99084C129.656 6.68593 130.015 6.44976 130.412 6.2989C130.81 6.14804 131.235 6.08615 131.658 6.11758H133.143C133.236 6.1174 133.326 6.154 133.392 6.21951C133.459 6.28501 133.497 6.37416 133.499 6.46771V8.02986C133.497 8.12325 133.459 8.21214 133.392 8.27747C133.325 8.3428 133.236 8.37937 133.143 8.37935H132.215C131.213 8.37935 131.02 8.85517 131.02 9.5548V11.1022H133.403C133.452 11.1006 133.501 11.1097 133.547 11.1291C133.592 11.1485 133.633 11.1776 133.667 11.2144C133.7 11.2512 133.725 11.2948 133.739 11.3422C133.754 11.3896 133.758 11.4397 133.752 11.4889L133.536 13.3409C133.525 13.4257 133.484 13.5036 133.42 13.5599C133.355 13.6161 133.273 13.6468 133.188 13.6461H131.035V18.3107C131.036 18.3932 131.021 18.475 130.99 18.5513C130.959 18.6277 130.913 18.6971 130.855 18.7553C130.797 18.8136 130.728 18.8595 130.651 18.8905C130.575 18.9214 130.494 18.9366 130.411 18.9353H129.172C129.09 18.9356 129.01 18.9196 128.934 18.8882C128.859 18.8568 128.791 18.8107 128.733 18.7526C128.676 18.6944 128.631 18.6254 128.6 18.5495C128.57 18.4737 128.555 18.3931 128.556 18.3114Z" fill="#14685A"/>
</svg>
