<svg width="620" height="679" viewBox="0 0 620 679" fill="none" xmlns="http://www.w3.org/2000/svg">
<mask id="mask0_29_42" style="mask-type:alpha" maskUnits="userSpaceOnUse" x="0" y="0" width="620" height="679">
<path d="M0 0H620V679H0V0Z" fill="#757575"/>
</mask>
<g mask="url(#mask0_29_42)">
<line y1="-0.5" x2="1172.55" y2="-0.5" transform="matrix(0.475158 -0.879901 0.475158 0.8799 8.38611 786.614)" stroke="#757575"/>
<line y1="-0.5" x2="1172.55" y2="-0.5" transform="matrix(0.475158 -0.879901 0.475158 0.879901 -176.504 192.311)" stroke="#757575"/>
<line y1="-0.5" x2="1172.55" y2="-0.5" transform="matrix(0.475158 -0.879901 0.475158 0.879901 21.9905 832.417)" stroke="#757575"/>
<line y1="-0.5" x2="1172.55" y2="-0.5" transform="matrix(0.475158 -0.879901 0.475158 0.879901 -162.901 238.114)" stroke="#757575"/>
<line y1="-0.5" x2="1172.55" y2="-0.5" transform="matrix(0.475158 -0.879901 0.475158 0.8799 35.5952 878.219)" stroke="#757575"/>
<line y1="-0.5" x2="1172.55" y2="-0.5" transform="matrix(0.475158 -0.879901 0.475158 0.879901 -149.297 283.918)" stroke="#757575"/>
<line y1="-0.5" x2="1172.55" y2="-0.5" transform="matrix(0.475158 -0.879901 0.475158 0.8799 49.1981 924.024)" stroke="#757575"/>
<line y1="-0.5" x2="1172.55" y2="-0.5" transform="matrix(0.475158 -0.8799 0.475158 0.8799 -135.692 329.721)" stroke="#757575"/>
<line y1="-0.5" x2="1172.55" y2="-0.5" transform="matrix(0.475158 -0.8799 0.475158 0.8799 62.803 969.829)" stroke="#757575"/>
<line y1="-0.5" x2="1172.55" y2="-0.5" transform="matrix(0.475158 -0.8799 0.475158 0.8799 -122.089 375.525)" stroke="#757575"/>
<line y1="-0.5" x2="1172.55" y2="-0.5" transform="matrix(0.475158 -0.879901 0.475158 0.8799 76.4067 1015.63)" stroke="#757575"/>
<line y1="-0.5" x2="1172.55" y2="-0.5" transform="matrix(0.475158 -0.879901 0.475158 0.8799 -108.485 421.329)" stroke="#757575"/>
<line y1="-0.5" x2="1172.55" y2="-0.5" transform="matrix(0.475158 -0.879901 0.475158 0.8799 90.0104 1061.43)" stroke="#757575"/>
<line y1="-0.5" x2="1172.55" y2="-0.5" transform="matrix(0.475158 -0.879901 0.475158 0.8799 -94.8806 467.134)" stroke="#757575"/>
<line y1="-0.5" x2="1172.55" y2="-0.5" transform="matrix(0.475158 -0.8799 0.475158 0.8799 103.615 1107.24)" stroke="#757575"/>
<line y1="-0.5" x2="1172.55" y2="-0.5" transform="matrix(0.475158 -0.879901 0.475158 0.8799 -81.2766 512.937)" stroke="#757575"/>
<line y1="-0.5" x2="1172.55" y2="-0.5" transform="matrix(0.475158 -0.879901 0.475158 0.879901 117.219 1153.04)" stroke="#757575"/>
<line y1="-0.5" x2="1172.55" y2="-0.5" transform="matrix(0.475158 -0.8799 0.475158 0.8799 -67.672 558.742)" stroke="#757575"/>
<line y1="-0.5" x2="1172.55" y2="-0.5" transform="matrix(0.475158 -0.879901 0.475158 0.8799 130.822 1198.85)" stroke="#757575"/>
<line y1="-0.5" x2="1172.55" y2="-0.5" transform="matrix(0.475158 -0.879901 0.475158 0.8799 -54.0684 604.542)" stroke="#757575"/>
<line y1="-0.5" x2="1172.55" y2="-0.5" transform="matrix(0.475158 -0.8799 0.475158 0.8799 144.427 1244.65)" stroke="#757575"/>
<line y1="-0.5" x2="1172.55" y2="-0.5" transform="matrix(0.475158 -0.879901 0.475158 0.8799 158.031 1290.45)" stroke="#757575"/>
<line y1="-0.5" x2="1172.55" y2="-0.5" transform="matrix(0.475158 -0.879901 0.475158 0.8799 -39.8455 653.783)" stroke="#757575"/>
<line y1="-0.5" x2="1172.55" y2="-0.5" transform="matrix(0.475158 -0.879901 0.475158 0.8799 171.635 1336.26)" stroke="#757575"/>
<line y1="-0.5" x2="1172.55" y2="-0.5" transform="matrix(0.475158 -0.879901 0.475158 0.8799 -26.2411 699.586)" stroke="#757575"/>
<line y1="-0.5" x2="1172.55" y2="-0.5" transform="matrix(0.475158 -0.879901 0.475158 0.8799 185.239 1382.06)" stroke="#757575"/>
<line y1="-0.5" x2="1172.55" y2="-0.5" transform="matrix(0.475158 -0.8799 0.475158 0.8799 -12.6387 745.39)" stroke="#757575"/>
</g>
</svg>
