<svg width="94" height="94" viewBox="0 0 94 94" fill="none" xmlns="http://www.w3.org/2000/svg">
<path d="M47 0C59.4652 0 71.4198 4.95177 80.234 13.766C89.0482 22.5802 94 34.5348 94 47C94 59.4652 89.0482 71.4198 80.234 80.234C71.4198 89.0482 59.4652 94 47 94C34.5348 94 22.5802 89.0482 13.766 80.234C4.95177 71.4198 0 59.4652 0 47C0 34.5348 4.95177 22.5802 13.766 13.766C22.5802 4.95177 34.5348 0 47 0ZM8.8125 47C8.8125 57.128 12.8358 66.8411 19.9974 74.0026C27.1589 81.1642 36.872 85.1875 47 85.1875C57.128 85.1875 66.8411 81.1642 74.0026 74.0026C81.1642 66.8411 85.1875 57.128 85.1875 47C85.1875 36.872 81.1642 27.1589 74.0026 19.9974C66.8411 12.8358 57.128 8.8125 47 8.8125C36.872 8.8125 27.1589 12.8358 19.9974 19.9974C12.8358 27.1589 8.8125 36.872 8.8125 47ZM37.4766 30.7086L62.5276 45.7427C62.7441 45.8735 62.9232 46.0579 63.0475 46.2782C63.1718 46.4985 63.2371 46.7471 63.2371 47C63.2371 47.2529 63.1718 47.5015 63.0475 47.7218C62.9232 47.9421 62.7441 48.1265 62.5276 48.2572L37.4766 63.2914C37.2539 63.4256 36.9995 63.4982 36.7394 63.5019C36.4794 63.5055 36.2231 63.4401 35.9966 63.3122C35.7701 63.1843 35.5817 62.9986 35.4505 62.7741C35.3194 62.5495 35.2502 62.2942 35.25 62.0341V31.9718C35.2491 31.7112 35.3176 31.4551 35.4483 31.2297C35.5791 31.0043 35.7674 30.8178 35.994 30.6892C36.2207 30.5607 36.4774 30.4947 36.738 30.4981C36.9985 30.5015 37.2534 30.5742 37.4766 30.7086Z" fill="#FEFEFE"/>
</svg>
