<svg width="11" height="11" viewBox="0 0 11 11" fill="none" xmlns="http://www.w3.org/2000/svg">
<path d="M5.51225 2.67038C7.05568 2.67038 8.32962 3.94432 8.32962 5.48775C8.32962 7.05568 7.05568 8.30512 5.51225 8.30512C3.94432 8.30512 2.69488 7.05568 2.69488 5.48775C2.69488 3.94432 3.94432 2.67038 5.51225 2.67038ZM5.51225 7.32517C6.5167 7.32517 7.32517 6.5167 7.32517 5.48775C7.32517 4.4833 6.5167 3.67483 5.51225 3.67483C4.4833 3.67483 3.67483 4.4833 3.67483 5.48775C3.67483 6.5167 4.5078 7.32517 5.51225 7.32517ZM9.08909 2.57238C9.08909 2.93987 8.7951 3.23385 8.42762 3.23385C8.06013 3.23385 7.76615 2.93987 7.76615 2.57238C7.76615 2.2049 8.06013 1.91091 8.42762 1.91091C8.7951 1.91091 9.08909 2.2049 9.08909 2.57238ZM10.951 3.23385C11 4.14031 11 6.85969 10.951 7.76615C10.902 8.64811 10.706 9.40757 10.069 10.069C9.43207 10.706 8.64811 10.902 7.76615 10.951C6.85969 11 4.14031 11 3.23385 10.951C2.35189 10.902 1.59243 10.706 0.930958 10.069C0.293987 9.40757 0.0979955 8.64811 0.0489978 7.76615C0 6.85969 0 4.14031 0.0489978 3.23385C0.0979955 2.35189 0.293987 1.56793 0.930958 0.930958C1.59243 0.293987 2.35189 0.0979955 3.23385 0.0489978C4.14031 0 6.85969 0 7.76615 0.0489978C8.64811 0.0979955 9.43207 0.293987 10.069 0.930958C10.706 1.56793 10.902 2.35189 10.951 3.23385ZM9.77506 8.7216C10.069 8.01114 9.99555 6.29621 9.99555 5.48775C9.99555 4.70379 10.069 2.98886 9.77506 2.2539C9.57906 1.78842 9.21158 1.39644 8.7461 1.22494C8.01114 0.930958 6.29621 1.00445 5.51225 1.00445C4.70379 1.00445 2.98886 0.930958 2.2784 1.22494C1.78842 1.42094 1.42094 1.78842 1.22494 2.2539C0.930958 2.98886 1.00445 4.70379 1.00445 5.48775C1.00445 6.29621 0.930958 8.01114 1.22494 8.7216C1.42094 9.21158 1.78842 9.57906 2.2784 9.77506C2.98886 10.069 4.70379 9.99555 5.51225 9.99555C6.29621 9.99555 8.01114 10.069 8.7461 9.77506C9.21158 9.57906 9.60356 9.21158 9.77506 8.7216Z" fill="#14685A"/>
</svg>
