<svg width="25" height="25" viewBox="0 0 25 25" fill="none" xmlns="http://www.w3.org/2000/svg">
<path d="M24.0234 13.3667C24.3327 13.6597 24.5728 14.0015 24.7437 14.3921C24.9146 14.7827 25 15.1937 25 15.625C25 16.0563 24.9186 16.4591 24.7559 16.8335C24.5931 17.2078 24.3693 17.5415 24.0845 17.8345C23.7996 18.1274 23.4701 18.3512 23.0957 18.5059C22.7214 18.6605 22.3145 18.7419 21.875 18.75C21.7041 18.75 21.5332 18.7378 21.3623 18.7134L15.6128 21.582C15.6209 21.6309 15.625 21.6797 15.625 21.7285C15.625 21.7773 15.625 21.8262 15.625 21.875C15.625 22.3063 15.5436 22.7091 15.3809 23.0835C15.2181 23.4578 14.9943 23.7915 14.7095 24.0845C14.4246 24.3774 14.0951 24.6012 13.7207 24.7559C13.3464 24.9105 12.9395 24.9919 12.5 25C12.0768 25 11.6781 24.9186 11.3037 24.7559C10.9294 24.5931 10.5957 24.3734 10.3027 24.0967C10.0098 23.82 9.7819 23.4904 9.61914 23.1079C9.45638 22.7254 9.37093 22.3267 9.36279 21.9116V21.7529C9.36279 21.7041 9.37093 21.6471 9.38721 21.582L3.6377 18.7134C3.4668 18.7378 3.2959 18.75 3.125 18.75C2.69368 18.75 2.29085 18.6686 1.9165 18.5059C1.54215 18.3431 1.2085 18.1193 0.915527 17.8345C0.622559 17.5496 0.398763 17.2201 0.244141 16.8457C0.0895182 16.4714 0.00813802 16.0645 0 15.625C0 15.0472 0.146484 14.5142 0.439453 14.0259C0.732422 13.5376 1.13525 13.1551 1.64795 12.8784L3.78418 5.0415C3.34473 4.47998 3.125 3.84115 3.125 3.125C3.125 2.69368 3.20638 2.29085 3.36914 1.9165C3.5319 1.54215 3.7557 1.2085 4.04053 0.915527C4.32536 0.622559 4.65495 0.398763 5.0293 0.244141C5.40365 0.0895182 5.81055 0.00813802 6.25 0C6.81152 0 7.33236 0.138346 7.8125 0.415039C8.29264 0.691732 8.67513 1.07422 8.95996 1.5625H16.04C16.3249 1.07422 16.7074 0.691732 17.1875 0.415039C17.6676 0.138346 18.1885 0 18.75 0C19.1813 0 19.5841 0.0813802 19.9585 0.244141C20.3328 0.406901 20.6665 0.630697 20.9595 0.915527C21.2524 1.20036 21.4762 1.52995 21.6309 1.9043C21.7855 2.27865 21.8669 2.68555 21.875 3.125C21.875 3.4668 21.8221 3.79639 21.7163 4.11377C21.6105 4.43115 21.4518 4.72819 21.2402 5.00488L24.0234 13.3667ZM18.75 15.625C18.75 15.1774 18.8395 14.7502 19.0186 14.3433C19.1976 13.9364 19.458 13.5864 19.7998 13.2935L14.3188 9.17969L6.22559 15.2466L6.25 15.625H18.75ZM6.25 6.25C5.86751 6.25 5.49316 6.18083 5.12695 6.04248L3.36914 12.5122C3.81673 12.5529 4.23584 12.679 4.62646 12.8906C5.01709 13.1022 5.35075 13.387 5.62744 13.7451L13.0249 8.20312L8.75244 5.00488C8.45133 5.39551 8.08512 5.70068 7.65381 5.92041C7.22249 6.14014 6.75456 6.25 6.25 6.25ZM21.3989 12.5366C21.464 12.5203 21.5373 12.5122 21.6187 12.5122C21.7 12.5122 21.7773 12.5081 21.8506 12.5H21.9727C22.0133 12.5 22.054 12.5041 22.0947 12.5122L19.9341 6.01807C19.5353 6.17269 19.1406 6.25 18.75 6.25C18.5872 6.25 18.4285 6.23779 18.2739 6.21338L15.625 8.20312L21.3989 12.5366ZM18.75 1.5625C18.5303 1.5625 18.3268 1.60319 18.1396 1.68457C17.9525 1.76595 17.7897 1.87581 17.6514 2.01416C17.513 2.15251 17.3991 2.31934 17.3096 2.51465C17.2201 2.70996 17.1794 2.91341 17.1875 3.125C17.1875 3.34473 17.2282 3.54818 17.3096 3.73535C17.391 3.92253 17.5008 4.08529 17.6392 4.22363C17.7775 4.36198 17.9443 4.47591 18.1396 4.56543C18.335 4.65495 18.5384 4.69564 18.75 4.6875C18.9697 4.6875 19.1732 4.64681 19.3604 4.56543C19.5475 4.48405 19.7103 4.37419 19.8486 4.23584C19.987 4.09749 20.1009 3.93066 20.1904 3.73535C20.2799 3.54004 20.3206 3.33659 20.3125 3.125C20.3125 2.90527 20.2718 2.70182 20.1904 2.51465C20.109 2.32747 19.9992 2.16471 19.8608 2.02637C19.7225 1.88802 19.5557 1.77409 19.3604 1.68457C19.165 1.59505 18.9616 1.55436 18.75 1.5625ZM15.625 3.125H9.375L9.35059 3.50342L14.3188 7.22656L16.6748 5.45654C16.333 5.16357 16.0726 4.81364 15.8936 4.40674C15.7145 3.99984 15.625 3.57259 15.625 3.125ZM6.25 1.5625C6.03027 1.5625 5.82682 1.60319 5.63965 1.68457C5.45247 1.76595 5.28971 1.87581 5.15137 2.01416C5.01302 2.15251 4.89909 2.31934 4.80957 2.51465C4.72005 2.70996 4.67936 2.91341 4.6875 3.125C4.6875 3.34473 4.72819 3.54818 4.80957 3.73535C4.89095 3.92253 5.00081 4.08529 5.13916 4.22363C5.27751 4.36198 5.44434 4.47591 5.63965 4.56543C5.83496 4.65495 6.03841 4.69564 6.25 4.6875C6.46973 4.6875 6.67318 4.64681 6.86035 4.56543C7.04753 4.48405 7.21029 4.37419 7.34863 4.23584C7.48698 4.09749 7.60091 3.93066 7.69043 3.73535C7.77995 3.54004 7.82064 3.33659 7.8125 3.125C7.8125 2.90527 7.77181 2.70182 7.69043 2.51465C7.60905 2.32747 7.49919 2.16471 7.36084 2.02637C7.22249 1.88802 7.05566 1.77409 6.86035 1.68457C6.66504 1.59505 6.46159 1.55436 6.25 1.5625ZM1.5625 15.625C1.5625 15.8447 1.60319 16.0482 1.68457 16.2354C1.76595 16.4225 1.87581 16.5853 2.01416 16.7236C2.15251 16.862 2.31934 16.9759 2.51465 17.0654C2.70996 17.1549 2.91341 17.1956 3.125 17.1875C3.34473 17.1875 3.54818 17.1468 3.73535 17.0654C3.92253 16.984 4.08529 16.8742 4.22363 16.7358C4.36198 16.5975 4.47591 16.4307 4.56543 16.2354C4.65495 16.04 4.69564 15.8366 4.6875 15.625C4.6875 15.4053 4.64681 15.2018 4.56543 15.0146C4.48405 14.8275 4.37419 14.6647 4.23584 14.5264C4.09749 14.388 3.93066 14.2741 3.73535 14.1846C3.54004 14.0951 3.33659 14.0544 3.125 14.0625C2.90527 14.0625 2.70182 14.1032 2.51465 14.1846C2.32747 14.266 2.16471 14.3758 2.02637 14.5142C1.88802 14.6525 1.77409 14.8193 1.68457 15.0146C1.59505 15.21 1.55436 15.4134 1.5625 15.625ZM12.5 23.4375C12.7197 23.4375 12.9232 23.3968 13.1104 23.3154C13.2975 23.234 13.4603 23.1242 13.5986 22.9858C13.737 22.8475 13.8509 22.6807 13.9404 22.4854C14.0299 22.29 14.0706 22.0866 14.0625 21.875C14.0625 21.6553 14.0218 21.4518 13.9404 21.2646C13.859 21.0775 13.7492 20.9147 13.6108 20.7764C13.4725 20.638 13.3057 20.5241 13.1104 20.4346C12.915 20.3451 12.7116 20.3044 12.5 20.3125C12.2803 20.3125 12.0768 20.3532 11.8896 20.4346C11.7025 20.516 11.5397 20.6258 11.4014 20.7642C11.263 20.9025 11.1491 21.0693 11.0596 21.2646C10.9701 21.46 10.9294 21.6634 10.9375 21.875C10.9375 22.0947 10.9782 22.2982 11.0596 22.4854C11.141 22.6725 11.2508 22.8353 11.3892 22.9736C11.5275 23.112 11.6943 23.2259 11.8896 23.3154C12.085 23.4049 12.2884 23.4456 12.5 23.4375ZM12.5 18.75C13.0127 18.75 13.4969 18.868 13.9526 19.104C14.4084 19.34 14.7827 19.6737 15.0757 20.105L19.6533 17.8223C19.5638 17.7246 19.4784 17.6229 19.397 17.5171C19.3156 17.4113 19.2383 17.3014 19.165 17.1875H5.83496C5.76986 17.3014 5.69661 17.4113 5.61523 17.5171C5.53385 17.6229 5.44434 17.7246 5.34668 17.8223L9.92432 20.105C10.2091 19.6818 10.5794 19.3522 11.0352 19.1162C11.4909 18.8802 11.9792 18.7581 12.5 18.75ZM21.875 17.1875C22.0947 17.1875 22.2982 17.1468 22.4854 17.0654C22.6725 16.984 22.8353 16.8742 22.9736 16.7358C23.112 16.5975 23.2259 16.4307 23.3154 16.2354C23.4049 16.04 23.4456 15.8366 23.4375 15.625C23.4375 15.3564 23.3724 15.1042 23.2422 14.8682C23.112 14.6322 22.9329 14.445 22.7051 14.3066L22.6929 14.3188L22.6807 14.3066L22.6929 14.2944C22.4325 14.1398 22.1598 14.0625 21.875 14.0625C21.6553 14.0625 21.4518 14.1032 21.2646 14.1846C21.0775 14.266 20.9147 14.3758 20.7764 14.5142C20.638 14.6525 20.5241 14.8193 20.4346 15.0146C20.3451 15.21 20.3044 15.4134 20.3125 15.625C20.3125 15.8447 20.3532 16.0482 20.4346 16.2354C20.516 16.4225 20.6258 16.5853 20.7642 16.7236C20.9025 16.862 21.0693 16.9759 21.2646 17.0654C21.46 17.1549 21.6634 17.1956 21.875 17.1875Z" fill="#FEFEFE"/>
</svg>
