<svg width="21" height="20" viewBox="0 0 21 20" fill="none" xmlns="http://www.w3.org/2000/svg">
<path d="M3.07538 18C3.64155 18 4.10052 17.5523 4.10052 17C4.10052 16.4477 3.64155 16 3.07538 16C2.5092 16 2.05023 16.4477 2.05023 17C2.05023 17.5523 2.5092 18 3.07538 18Z" fill="#FEFEFE"/>
<path d="M2.05023 2H4.10052V11H2.05023V2Z" fill="#FEFEFE"/>
<path d="M5.12573 0H1.02515C0.75326 0 0.49251 0.105357 0.300258 0.292893C0.108006 0.48043 0 0.734784 0 1V19C0 19.2652 0.108006 19.5196 0.300258 19.7071C0.49251 19.8946 0.75326 20 1.02515 20H5.12573C5.39761 20 5.65836 19.8946 5.85061 19.7071C6.04286 19.5196 6.15087 19.2652 6.15087 19V1C6.15087 0.734784 6.04286 0.48043 5.85061 0.292893C5.65836 0.105357 5.39761 0 5.12573 0ZM5.12573 19H1.02515V1H5.12573V19ZM12.3017 1V8H9.22631V1H12.3017ZM13.3269 0H8.20116V9H13.3269V0ZM19.4778 1V8H16.4023V1H19.4778ZM20.5029 0H15.3772V9H20.5029V0ZM12.3017 12V19H9.22631V12H12.3017ZM13.3269 11H8.20116V20H13.3269V11ZM19.4778 12V19H16.4023V12H19.4778ZM20.5029 11H15.3772V20H20.5029V11Z" fill="#FEFEFE"/>
</svg>
