<svg width="12" height="14" viewBox="0 0 12 14" fill="none" xmlns="http://www.w3.org/2000/svg">
<path d="M6.25 4.80469C7.72656 4.80469 8.94531 6.02344 8.94531 7.5C8.94531 9 7.72656 10.1953 6.25 10.1953C4.75 10.1953 3.55469 9 3.55469 7.5C3.55469 6.02344 4.75 4.80469 6.25 4.80469ZM6.25 9.25781C7.21094 9.25781 7.98438 8.48438 7.98438 7.5C7.98438 6.53906 7.21094 5.76562 6.25 5.76562C5.26562 5.76562 4.49219 6.53906 4.49219 7.5C4.49219 8.48438 5.28906 9.25781 6.25 9.25781ZM9.67188 4.71094C9.67188 5.0625 9.39062 5.34375 9.03906 5.34375C8.6875 5.34375 8.40625 5.0625 8.40625 4.71094C8.40625 4.35938 8.6875 4.07812 9.03906 4.07812C9.39062 4.07812 9.67188 4.35938 9.67188 4.71094ZM11.4531 5.34375C11.5 6.21094 11.5 8.8125 11.4531 9.67969C11.4062 10.5234 11.2188 11.25 10.6094 11.8828C10 12.4922 9.25 12.6797 8.40625 12.7266C7.53906 12.7734 4.9375 12.7734 4.07031 12.7266C3.22656 12.6797 2.5 12.4922 1.86719 11.8828C1.25781 11.25 1.07031 10.5234 1.02344 9.67969C0.976562 8.8125 0.976562 6.21094 1.02344 5.34375C1.07031 4.5 1.25781 3.75 1.86719 3.14062C2.5 2.53125 3.22656 2.34375 4.07031 2.29688C4.9375 2.25 7.53906 2.25 8.40625 2.29688C9.25 2.34375 10 2.53125 10.6094 3.14062C11.2188 3.75 11.4062 4.5 11.4531 5.34375ZM10.3281 10.5938C10.6094 9.91406 10.5391 8.27344 10.5391 7.5C10.5391 6.75 10.6094 5.10938 10.3281 4.40625C10.1406 3.96094 9.78906 3.58594 9.34375 3.42188C8.64062 3.14062 7 3.21094 6.25 3.21094C5.47656 3.21094 3.83594 3.14062 3.15625 3.42188C2.6875 3.60938 2.33594 3.96094 2.14844 4.40625C1.86719 5.10938 1.9375 6.75 1.9375 7.5C1.9375 8.27344 1.86719 9.91406 2.14844 10.5938C2.33594 11.0625 2.6875 11.4141 3.15625 11.6016C3.83594 11.8828 5.47656 11.8125 6.25 11.8125C7 11.8125 8.64062 11.8828 9.34375 11.6016C9.78906 11.4141 10.1641 11.0625 10.3281 10.5938Z" fill="#14685A"/>
</svg>
